<?xml version="1.0" encoding="utf-8"?>
<!-- Generator: Adobe Illustrator 19.0.0, SVG Export Plug-In . SVG Version: 6.00 Build 0)  -->
<svg version="1.1" id="Layer_1" xmlns="http://www.w3.org/2000/svg" xmlns:xlink="http://www.w3.org/1999/xlink" x="0px" y="0px"
	 viewBox="0 0 500 500" style="enable-background:new 0 0 500 500;" xml:space="preserve">
<style type="text/css">
	.st0{fill:#264970;}
</style>
<g id="XMLID_1_">
	<path id="XMLID_2_" class="st0" d="M291,250.5c0-23.5-19.1-42.6-42.6-42.6c-23.5,0-42.6,19.1-42.6,42.6c0,23.5,19.1,42.6,42.6,42.6
		C272,293.1,291,274,291,250.5"/>
	<path id="XMLID_3_" class="st0" d="M386.8,354.8l-22.2-12.8c-2.8-1.6-6.3-1-8.5,1.4c-27.3,30.7-66.4,48.3-107.2,48.3
		c-40.9,0-79.9-17.6-107.2-48.3c-2.1-2.4-5.7-3-8.5-1.4l-22.2,12.8c-1.7,1-2.9,2.7-3.3,4.7c-0.3,2,0.2,4,1.5,5.5
		c34.8,41.5,85.7,65.4,139.7,65.4c53.9,0,104.9-23.8,139.6-65.4c1.3-1.5,1.8-3.6,1.5-5.5C389.8,357.6,388.6,355.8,386.8,354.8"/>
	<path id="XMLID_4_" class="st0" d="M271.1,356.5c0.5,0,1.1-0.1,1.6-0.2c49.1-11,84.8-55.5,84.8-105.8c0-11.1-1.7-22-5-32.5
		c-0.7-2.1-2.3-3.9-4.4-4.7c-2.1-0.8-4.4-0.6-6.4,0.5l-13.2,7.6c-2.9,1.7-4.3,5.1-3.4,8.4c1.8,6.8,2.8,13.7,2.8,20.7
		c0,35.7-24.1,67-58.7,76.2c-3.2,0.9-5.5,3.8-5.5,7.2v15.2c0,2.2,1,4.4,2.8,5.8C267.7,355.9,269.4,356.5,271.1,356.5"/>
	<path id="XMLID_5_" class="st0" d="M249.8,140c-30.2,0-59.2,12.8-79.8,35.1c-1.5,1.7-2.2,3.9-1.9,6.1c0.3,2.2,1.7,4.2,3.6,5.3
		l13.2,7.6c1.2,0.7,2.4,1,3.7,1c1.9,0,3.8-0.8,5.3-2.2c14.9-15,34.8-23.3,55.9-23.3c21.1,0,40.9,8.3,55.9,23.3c2.4,2.4,6,2.9,9,1.2
		l13.2-7.6c1.9-1.1,3.3-3.1,3.6-5.3c0.3-2.2-0.3-4.5-1.9-6.1C309.1,152.8,280,140,249.8,140"/>
	<path id="XMLID_6_" class="st0" d="M113.6,294.4c-4.9-14.6-7.4-29.9-7.4-45.3c0-67.9,48.2-127,114.6-140.6c3.2-0.6,5.4-3.4,5.4-6.7
		V76.3c0-2-0.9-3.9-2.4-5.2c-1.5-1.3-3.6-1.8-5.5-1.5C131,84.9,67.5,160.4,67.5,249.1c0,21.5,3.7,42.6,11.1,62.6
		c0.7,1.9,2.2,3.4,4.1,4c0.7,0.3,1.5,0.4,2.3,0.4c1.2,0,2.4-0.3,3.4-0.9l22.2-12.8C113.3,300.8,114.6,297.5,113.6,294.4"/>
	<path id="XMLID_7_" class="st0" d="M169.4,221.5l-13.2-7.6c-1.9-1.1-4.3-1.3-6.4-0.5c-2.1,0.8-3.7,2.5-4.4,4.7
		c-3.3,10.5-5,21.4-5,32.5c0,50.3,35.7,94.8,84.8,105.8c0.5,0.1,1.1,0.2,1.6,0.2c1.7,0,3.3-0.6,4.6-1.6c1.8-1.4,2.8-3.5,2.8-5.8
		v-15.2c0-3.4-2.3-6.3-5.5-7.2c-34.5-9.1-58.7-40.5-58.7-76.2c0-7,0.9-13.9,2.8-20.7C173.7,226.6,172.3,223.2,169.4,221.5"/>
	<path id="XMLID_8_" class="st0" d="M281.7,69.7c-2-0.3-4,0.2-5.5,1.5c-1.5,1.3-2.4,3.2-2.4,5.2v25.5c0,3.2,2.3,6,5.4,6.7
		c66.4,13.6,114.6,72.7,114.6,140.6c0,15.4-2.5,30.6-7.4,45.3c-1,3.1,0.3,6.4,3,8l22.2,12.8c1,0.6,2.2,0.9,3.4,0.9
		c0.8,0,1.6-0.1,2.3-0.4c1.9-0.7,3.4-2.2,4.1-4c7.4-20,11.1-41.1,11.1-62.6C432.5,160.4,369.1,84.9,281.7,69.7"/>
</g>
</svg>
